<svg width="66" height="44" viewBox="0 0 66 44" fill="none" xmlns="http://www.w3.org/2000/svg">
<path d="M49.28 22.751C48.3287 21.736 47.0156 21.0571 45.7686 20.4934C44.4701 19.9021 42.5889 19.42 41.7622 18.1473C41.0687 17.0817 42.0243 15.9636 42.998 15.6388C44.5655 15.112 46.4991 15.7462 47.8749 16.5205C48.5607 16.9038 49.2843 16.5282 49.5456 15.8416C49.8334 15.0819 50.1213 14.3213 50.4049 13.5625C50.5785 13.101 50.2984 12.5106 49.8859 12.2786C48.6355 11.5851 47.3327 11.2053 45.9568 11.0248V8.70104C45.9568 8.08143 45.4403 7.56494 44.8207 7.56494H42.6774C42.0613 7.56494 41.5413 8.08143 41.5413 8.70104V11.2963C39.4204 11.9082 37.4877 13.2738 36.7348 15.4428C35.8978 17.8439 36.4066 20.3301 38.1881 22.1485C39.1437 23.1265 40.4345 23.7685 41.6599 24.3245C43.0427 24.9484 44.7434 25.3978 45.6363 26.7299C46.5919 28.1538 45.3561 29.5589 44.0206 29.962C42.228 30.4999 40.0555 29.693 38.5498 28.7554C37.8898 28.3429 37.1224 28.7666 36.8827 29.4343L36.0525 31.7469C35.8755 32.241 36.1702 32.7653 36.5759 33.0299C37.9964 33.9598 39.6266 34.4204 41.2973 34.6129V37.0587C41.2973 37.3913 41.4193 37.6456 41.5998 37.8261C41.6109 37.8381 41.6221 37.8485 41.629 37.8596C41.6393 37.8703 41.6505 37.8801 41.6625 37.8889C41.843 38.0736 42.0973 38.1948 42.4299 38.1948H44.6102C44.9103 38.1921 45.1974 38.0714 45.4093 37.8588C45.6212 37.6463 45.741 37.3589 45.7428 37.0587V34.3585C48.1001 33.6796 49.922 32.1568 50.8406 29.7918C51.7825 27.3796 50.9816 24.572 49.274 22.7501" fill="#FF8A00"/>
<circle cx="44" cy="22" r="21" stroke="#FF8A00" stroke-width="2"/>
</svg>
