<svg width="31" height="32" viewBox="0 0 31 32" fill="none" xmlns="http://www.w3.org/2000/svg">
<path fill-rule="evenodd" clip-rule="evenodd" d="M2.03228 16.2818C2.03228 19.8309 3.44214 23.2346 5.9517 25.7442C8.46127 28.2537 11.865 29.6636 15.414 29.6636C18.9631 29.6636 22.3668 28.2537 24.8764 25.7442C27.3859 23.2346 28.7958 19.8309 28.7958 16.2818C28.7958 12.7328 27.3859 9.32908 24.8764 6.81951C22.3668 4.30995 18.9631 2.90009 15.414 2.90008C11.865 2.90008 8.46127 4.30994 5.95171 6.81951C3.44214 9.32907 2.03228 12.7328 2.03228 16.2818ZM30.7075 16.2818C30.7075 20.3379 29.0962 24.2279 26.2281 27.0959C23.36 29.964 19.4701 31.5753 15.414 31.5753C11.358 31.5753 7.46802 29.964 4.59994 27.0959C1.73187 24.2279 0.120602 20.3379 0.120603 16.2818C0.120604 12.2258 1.73187 8.33582 4.59995 5.46775C7.46802 2.59967 11.358 0.988405 15.414 0.988406C19.4701 0.988407 23.3601 2.59968 26.2281 5.46775C29.0962 8.33583 30.7075 12.2258 30.7075 16.2818ZM16.3699 9.59096C16.3699 9.33746 16.2692 9.09434 16.0899 8.91508C15.9107 8.73583 15.6675 8.63512 15.414 8.63512C15.1605 8.63512 14.9174 8.73583 14.7382 8.91508C14.5589 9.09434 14.4582 9.33746 14.4582 9.59096L14.4582 20.6653L10.3557 16.5609C10.1763 16.3815 9.93282 16.2806 9.679 16.2806C9.42517 16.2806 9.18174 16.3815 9.00226 16.5609C8.82278 16.7404 8.72195 16.9839 8.72195 17.2377C8.72195 17.4915 8.82278 17.7349 9.00226 17.9144L14.7373 23.6494C14.8261 23.7385 14.9316 23.8091 15.0477 23.8573C15.1638 23.9055 15.2883 23.9303 15.414 23.9303C15.5398 23.9303 15.6642 23.9055 15.7804 23.8573C15.8965 23.8091 16.002 23.7385 16.0908 23.6494L21.8258 17.9144C22.0053 17.7349 22.1061 17.4915 22.1061 17.2377C22.1061 16.9839 22.0053 16.7404 21.8258 16.5609C21.6463 16.3815 21.4029 16.2806 21.1491 16.2806C20.8952 16.2806 20.6518 16.3815 20.4723 16.5609L16.3699 20.6653L16.3699 9.59096Z" fill="white"/>
</svg>
