<svg width="32" height="32" viewBox="0 0 32 32" fill="none" xmlns="http://www.w3.org/2000/svg">
<path fill-rule="evenodd" clip-rule="evenodd" d="M2.36694 15.9167C2.36694 19.4658 3.7768 22.8695 6.28636 25.3791C8.79593 27.8886 12.1996 29.2985 15.7487 29.2985C19.2977 29.2985 22.7014 27.8886 25.211 25.3791C27.7206 22.8695 29.1304 19.4658 29.1304 15.9167C29.1304 12.3677 27.7206 8.96396 25.211 6.4544C22.7015 3.94483 19.2978 2.53497 15.7487 2.53497C12.1996 2.53497 8.79593 3.94483 6.28636 6.4544C3.7768 8.96396 2.36694 12.3677 2.36694 15.9167ZM31.0421 15.9167C31.0421 19.9728 29.4309 23.8627 26.5628 26.7308C23.6947 29.5989 19.8048 31.2102 15.7487 31.2102C11.6926 31.2102 7.80267 29.5989 4.9346 26.7308C2.06652 23.8627 0.455258 19.9728 0.455259 15.9167C0.455259 11.8607 2.06653 7.97071 4.9346 5.10263C7.80268 2.23456 11.6926 0.623293 15.7487 0.623294C19.8048 0.623294 23.6947 2.23456 26.5628 5.10264C29.4309 7.97071 31.0421 11.8607 31.0421 15.9167ZM16.7045 9.22585C16.7045 8.97235 16.6038 8.72922 16.4246 8.54997C16.2453 8.37071 16.0022 8.27001 15.7487 8.27001C15.4952 8.27001 15.2521 8.37071 15.0728 8.54997C14.8936 8.72922 14.7929 8.97234 14.7929 9.22585L14.7928 20.3002L10.6904 16.1958C10.5109 16.0163 10.2675 15.9155 10.0137 15.9155C9.75983 15.9155 9.5164 16.0163 9.33692 16.1958C9.15744 16.3753 9.05661 16.6187 9.05661 16.8726C9.05661 17.1264 9.15744 17.3698 9.33692 17.5493L15.072 23.2843C15.1607 23.3734 15.2662 23.444 15.3823 23.4922C15.4985 23.5403 15.623 23.5651 15.7487 23.5651C15.8744 23.5651 15.9989 23.5403 16.115 23.4922C16.2312 23.444 16.3366 23.3734 16.4254 23.2843L22.1605 17.5493C22.3399 17.3698 22.4408 17.1264 22.4408 16.8726C22.4408 16.6187 22.3399 16.3753 22.1605 16.1958C21.981 16.0164 21.7376 15.9155 21.4837 15.9155C21.2299 15.9155 20.9865 16.0164 20.807 16.1958L16.7045 20.3002L16.7045 9.22585Z" fill="#151515"/>
</svg>
