<svg width="21" height="20" viewBox="0 0 21 20" fill="none" xmlns="http://www.w3.org/2000/svg">
<g clip-path="url(#clip0_382_147)">
<path d="M17.2449 13.9207C19.3162 12.0722 20.4608 9.97777 20.4608 9.97777C20.4608 9.97777 16.8077 3.2804 10.7192 3.2804C9.54968 3.28442 8.39342 3.52811 7.32178 3.99641L8.25941 4.93526C9.04779 4.64807 9.88011 4.50014 10.7192 4.4981C13.3007 4.4981 15.4426 5.92038 17.0123 7.49C17.7677 8.24947 18.4449 9.08291 19.0337 9.97777C18.963 10.0837 18.8851 10.2006 18.7962 10.3285C18.3883 10.913 17.7855 11.6923 17.0123 12.4655C16.8113 12.6665 16.6019 12.8649 16.3827 13.0573L17.2449 13.9207Z" fill="#F8F9FA"/>
<path d="M14.7344 11.4097C15.0061 10.6496 15.0564 9.82807 14.8795 9.04055C14.7025 8.25302 14.3056 7.53194 13.7349 6.96119C13.1641 6.39045 12.443 5.99351 11.6555 5.81656C10.868 5.63962 10.0464 5.68994 9.28637 5.96168L10.2885 6.96385C10.7565 6.89686 11.2337 6.93979 11.6822 7.08923C12.1307 7.23866 12.5382 7.4905 12.8725 7.82478C13.2068 8.15906 13.4586 8.5666 13.608 9.01511C13.7575 9.46361 13.8004 9.94076 13.7334 10.4087L14.7344 11.4097ZM11.1507 12.9915L12.1516 13.9924C11.3916 14.2642 10.57 14.3145 9.78249 14.1376C8.99497 13.9606 8.27388 13.5637 7.70314 12.9929C7.13239 12.4222 6.73545 11.7011 6.55851 10.9136C6.38156 10.126 6.43188 9.30447 6.70362 8.54443L7.70579 9.5466C7.63881 10.0146 7.68173 10.4917 7.83117 10.9402C7.9806 11.3887 8.23244 11.7963 8.56672 12.1306C8.901 12.4648 9.30854 12.7167 9.75705 12.8661C10.2056 13.0155 10.6827 13.0585 11.1507 12.9915V12.9915Z" fill="#F8F9FA"/>
<path d="M5.05709 6.89686C4.83791 7.09169 4.62724 7.28896 4.42632 7.48988C3.67091 8.24935 2.99372 9.08279 2.40493 9.97765L2.64239 10.3284C3.05032 10.9128 3.65308 11.6922 4.42632 12.4654C5.99594 14.035 8.1391 15.4573 10.7194 15.4573C11.5913 15.4573 12.412 15.2954 13.1792 15.0189L14.1168 15.959C13.0452 16.4273 11.8889 16.671 10.7194 16.675C4.6309 16.675 0.977783 9.97765 0.977783 9.97765C0.977783 9.97765 2.12121 7.88198 4.19374 6.03472L5.05588 6.89808L5.05709 6.89686ZM17.5946 17.7149L2.98213 3.10249L3.84426 2.24036L18.4567 16.8528L17.5946 17.7149Z" fill="#F8F9FA"/>
</g>
<defs>
<clipPath id="clip0_382_147">
<rect width="19.4833" height="19.4833" fill="white" transform="translate(0.977783 0.236084)"/>
</clipPath>
</defs>
</svg>
