<svg width="31" height="32" viewBox="0 0 31 32" fill="none" xmlns="http://www.w3.org/2000/svg">
<path fill-rule="evenodd" clip-rule="evenodd" d="M28.7242 15.9168C28.7242 12.3677 27.3143 8.96401 24.8048 6.45445C22.2952 3.94488 18.8915 2.53502 15.3424 2.53502C11.7934 2.53502 8.38967 3.94488 5.88011 6.45444C3.37054 8.96401 1.96068 12.3677 1.96068 15.9168C1.96068 19.4658 3.37054 22.8695 5.88011 25.3791C8.38967 27.8887 11.7934 29.2985 15.3424 29.2985C18.8915 29.2985 22.2952 27.8887 24.8048 25.3791C27.3143 22.8695 28.7242 19.4658 28.7242 15.9168ZM0.0490011 15.9168C0.0490015 11.8607 1.66027 7.97076 4.52835 5.10268C7.39642 2.23461 11.2864 0.623339 15.3424 0.623339C19.3985 0.62334 23.2884 2.23461 26.1565 5.10268C29.0246 7.97076 30.6359 11.8607 30.6359 15.9168C30.6359 19.9728 29.0246 23.8628 26.1565 26.7309C23.2884 29.5989 19.3985 31.2102 15.3424 31.2102C11.2864 31.2102 7.39642 29.5989 4.52834 26.7309C1.66027 23.8628 0.0490008 19.9728 0.0490011 15.9168ZM14.3866 22.6076C14.3866 22.8612 14.4873 23.1043 14.6666 23.2835C14.8458 23.4628 15.0889 23.5635 15.3424 23.5635C15.5959 23.5635 15.8391 23.4628 16.0183 23.2835C16.1976 23.1043 16.2983 22.8612 16.2983 22.6076L16.2983 11.5333L20.4007 15.6377C20.5802 15.8171 20.8236 15.918 21.0775 15.918C21.3313 15.918 21.5747 15.8171 21.7542 15.6377C21.9337 15.4582 22.0345 15.2148 22.0345 14.9609C22.0345 14.7071 21.9337 14.4637 21.7542 14.2842L16.0192 8.54916C15.9304 8.46015 15.8249 8.38953 15.7088 8.34134C15.5927 8.29315 15.4682 8.26835 15.3424 8.26835C15.2167 8.26835 15.0922 8.29315 14.9761 8.34134C14.86 8.38952 14.7545 8.46015 14.6657 8.54916L8.93066 14.2842C8.75118 14.4637 8.65035 14.7071 8.65035 14.9609C8.65035 15.2148 8.75118 15.4582 8.93066 15.6377C9.11014 15.8171 9.35357 15.918 9.6074 15.918C9.86122 15.918 10.1046 15.8171 10.2841 15.6377L14.3866 11.5333L14.3866 22.6076Z" fill="white"/>
</svg>
