<svg width="32" height="32" viewBox="0 0 32 32" fill="none" xmlns="http://www.w3.org/2000/svg">
<path fill-rule="evenodd" clip-rule="evenodd" d="M29.3891 16.2819C29.3891 12.7328 27.9792 9.32912 25.4697 6.81956C22.9601 4.30999 19.5564 2.90013 16.0074 2.90013C12.4583 2.90013 9.0546 4.30999 6.54503 6.81955C4.03546 9.32912 2.6256 12.7328 2.6256 16.2819C2.6256 19.8309 4.03546 23.2346 6.54502 25.7442C9.05459 28.2538 12.4583 29.6636 16.0073 29.6636C19.5564 29.6636 22.9601 28.2538 25.4697 25.7442C27.9792 23.2346 29.3891 19.8309 29.3891 16.2819ZM0.713922 16.2819C0.713923 12.2258 2.32519 8.33586 5.19327 5.46779C8.06134 2.59972 11.9513 0.988449 16.0074 0.98845C20.0634 0.988451 23.9534 2.59972 26.8214 5.46779C29.6895 8.33587 31.3008 12.2258 31.3008 16.2819C31.3008 20.338 29.6895 24.2279 26.8214 27.096C23.9534 29.964 20.0634 31.5753 16.0073 31.5753C11.9513 31.5753 8.06134 29.964 5.19326 27.096C2.32519 24.2279 0.71392 20.3379 0.713922 16.2819ZM15.0515 22.9728C15.0515 23.2263 15.1522 23.4694 15.3315 23.6486C15.5107 23.8279 15.7538 23.9286 16.0074 23.9286C16.2609 23.9286 16.504 23.8279 16.6832 23.6486C16.8625 23.4694 16.9632 23.2263 16.9632 22.9728L16.9632 11.8984L21.0657 16.0028C21.2451 16.1823 21.4886 16.2831 21.7424 16.2831C21.9962 16.2831 22.2396 16.1823 22.4191 16.0028C22.5986 15.8233 22.6994 15.5799 22.6994 15.326C22.6994 15.0722 22.5986 14.8288 22.4191 14.6493L16.6841 8.91427C16.5953 8.82526 16.4898 8.75463 16.3737 8.70645C16.2576 8.65826 16.1331 8.63346 16.0074 8.63346C15.8816 8.63346 15.7571 8.65826 15.641 8.70645C15.5249 8.75463 15.4194 8.82526 15.3306 8.91427L9.59558 14.6493C9.4161 14.8288 9.31527 15.0722 9.31527 15.326C9.31527 15.5799 9.4161 15.8233 9.59558 16.0028C9.77506 16.1823 10.0185 16.2831 10.2723 16.2831C10.5261 16.2831 10.7696 16.1823 10.9491 16.0028L15.0515 11.8984L15.0515 22.9728Z" fill="#151515"/>
</svg>
